# xmcd CD database file
#
# Track frame offsets:
#	150
#	15712
#	33517
#	51455
#	71167
#	88247
#	101617
#	117700
#	136582
#	152912
#	157415
#	174150
#	181040
#	200212
#	215782
#	231202
#	252622
#	262162
#	281329
#
# Disc length: 3969 seconds
#
# Revision: 0
# Processed by: cddbd v1.4PL0 Copyright (c) Steve Scherf et al.
# Submitted via: CDex 1.51
#
DISCID=2a0f7f13
DTITLE=Moby - Play
DYEAR=1900
DGENRE=Rhythmic Soul
TTITLE0=Honey
TTITLE1=Find my baby
TTITLE2=Porcelain
TTITLE3=Why does my heart, feel so bad
TTITLE4=Southside
TTITLE5=Rushing
TTITLE6=Bodyrock
TTITLE7=Natural Blues
TTITLE8=Machete
TTITLE9=7
TTITLE10=Run on
TTITLE11=Down slow
TTITLE12=If things were perfect
TTITLE13=Ever loving
TTITLE14=Inside
TTITLE15=Guitar flute and string
TTITLE16=Sky is broken
TTITLE17=My weakness
TTITLE18=Play On
EXTD=
EXTT0=
EXTT1=
EXTT2=
EXTT3=
EXTT4=
EXTT5=
EXTT6=
EXTT7=
EXTT8=
EXTT9=
EXTT10=
EXTT11=
EXTT12=
EXTT13=
EXTT14=
EXTT15=
EXTT16=
EXTT17=
EXTT18=
PLAYORDER=
